<?xml version="1.0"?>
<svg xmlns="http://www.w3.org/2000/svg" height="512px" viewBox="0 -44 512 512" width="512px" class=""><g><path d="m370.757812 211.863281 123.585938-132.414062-74.246094-70.621094h-82.257812l-82.253906 82.035156-82.257813-82.035156h-82.246094l-82.253906 82.035156 121.28125 126.796875-121.28125 119.324219 85.554687 77.914063h82.257813l78.945313-77.914063 83.085937 77.914063h82.246094l64.597656-79.449219zm0 0" fill="#dc691d" data-original="#DC691D" class="" data-old_color="#dc691d" style="fill:#E91212"/><path d="m426.804688 338.980469-126.667969-118.289063 125.820312-135.945312-85.195312-84.746094-127.789063 128.40625-127.777344-128.40625-85.195312 85.601562 125.617188 132.316407-125.617188 124.503906 88.609375 81.300781 124.363281-124.105468 128.644532 124.105468zm0 0" fill="#ed8a19" data-original="#ED8A19" class="" data-old_color="#ed8a19" style="fill:#F54646"/><g fill="#dc691d"><path d="m85.195312 0h85.1875l85.195313 85.601562-42.605469 42.804688zm0 0" data-original="#DC691D" class="" data-old_color="#DC691D" style="fill:#E91212"/><path d="m341.617188 423.722656 85.1875-84.742187h85.195312l-85.195312 84.742187zm0 0" data-original="#DC691D" class="" data-old_color="#DC691D" style="fill:#E91212"/><path d="m88.609375 423.722656h85.195313l81.773437-81.300781-42.605469-42.804687zm0 0" data-original="#DC691D" class="" data-old_color="#DC691D" style="fill:#E91212"/></g><path d="m300.136719 220.691406h79.335937l131.671875-135.945312h-85.1875zm0 0" fill="#c5411e" data-original="#C5411E" class="active-path" style="fill:#E91212" data-old_color="#c5411e"/><path d="m379.472656 220.691406h-79.335937l126.667969 118.289063h85.195312zm0 0" fill="#c5411e" data-original="#C5411E" class="active-path" style="fill:#E91212" data-old_color="#c5411e"/><path d="m340.761719 0h85.195312l85.1875 84.746094h-85.1875zm0 0" fill="#dc691d" data-original="#DC691D" class="" data-old_color="#dc691d" style="fill:#E91212"/></g> </svg>
