<svg id="SvgjsSvg1001" width="288" height="288" xmlns="http://www.w3.org/2000/svg" version="1.1" xmlns:xlink="http://www.w3.org/1999/xlink" xmlns:svgjs="http://svgjs.com/svgjs"><path id="SvgjsPath1016" d="M 144,0 C 5,0 0,5 0,144 0,283 5,288 144,288 283,288 288,283 288,144 288,5 283,0 144,0 Z" transform="matrix(0.7916,0,0,0.7916,30.009600000000006,30.009600000000006)" fill="#fffaa9"></path><defs id="SvgjsDefs1002"></defs><g id="SvgjsG1008" transform="matrix(0.79,0,0,0.79,30.240057678222655,30.24023071289062)"><svg xmlns="http://www.w3.org/2000/svg" width="288" height="288" viewBox="0 0 32 32"><g transform="translate(541 -1156.362)" fill="#000000" class="color000 svgShape"><path fill="none" stroke="#f05542" stroke-dashoffset="1.5" stroke-linecap="round" stroke-linejoin="round" d="m -524.99994,1157.8623 a 14.499923,14.499925 0 0 1 13.39618,8.951 14.499923,14.499925 0 0 1 -3.14319,15.8019 14.499923,14.499925 0 0 1 -15.80187,3.1432 14.499923,14.499925 0 0 1 -8.95104,-13.3962" color="#000" overflow="visible" style="isolation:auto;mix-blend-mode:normal" class="colorStrokef05542 svgStroke"></path><path fill="none" stroke="#25b39e" stroke-dashoffset="1.5" stroke-linecap="round" stroke-linejoin="round" d="m -514.17375,1166.1114 a 12.500025,12.500027 0 0 1 -2.5835,15.6481 12.500025,12.500027 0 0 1 -15.85137,0.5189 12.500025,12.500027 0 0 1 -3.6014,-15.4456 12.500025,12.500027 0 0 1 14.44618,-6.5454" color="#000" overflow="visible" style="isolation:auto;mix-blend-mode:normal" class="colorStroke25b39e svgStroke"></path><path fill="none" stroke="#fcd062" stroke-dashoffset="1.5" stroke-linecap="round" stroke-linejoin="round" d="m -524.99915,1161.8613 a 10.5,10.500002 0 0 1 10.34049,8.6767 10.5,10.500002 0 0 1 -6.74927,11.6901 10.5,10.500002 0 0 1 -12.68448,-4.6168" color="#000" overflow="visible" style="isolation:auto;mix-blend-mode:normal" class="colorStrokefcd062 svgStroke"></path><path fill="none" stroke="#34485c" stroke-dashoffset="1.5" stroke-linecap="round" stroke-linejoin="round" d="m -524.99915,1180.8613 a 8.5,8.500001 0 0 1 -7.85297,-5.2472 8.5,8.500001 0 0 1 1.84257,-9.2632 8.5,8.500001 0 0 1 9.26321,-1.8425 8.5,8.500001 0 0 1 5.24719,7.8529" color="#000" overflow="visible" style="isolation:auto;mix-blend-mode:normal" class="colorStroke34485c svgStroke"></path><path fill="#2b4255" d="m -527.50667,1167.3633 0,0 c -0.11639,0 -0.21954,0.1036 -0.21954,0.2195 l 0,1.5884 c 0,0.3231 0.18074,0.607 0.45231,0.7622 l 0,0.3747 c 0,0.026 0.0128,0.052 0.0128,0.078 0,0.052 -0.0128,0.1032 -0.0128,0.1548 l 0,0.6718 c 0,0.7495 0.36149,1.3953 0.91742,1.8088 -0.0516,0.3743 -0.20676,0.5943 -0.4651,0.7883 -0.30991,0.2323 -0.74945,0.3875 -1.21455,0.5942 -0.4651,0.194 -0.95575,0.4391 -1.34326,0.8526 -0.37473,0.4264 -0.61983,1.0202 -0.61983,1.8732 l 0,0.2328 9.99848,0 0,-0.2328 c 0,-0.827 -0.24556,-1.4081 -0.63307,-1.8211 -0.37472,-0.4008 -0.8526,-0.6335 -1.3177,-0.8271 -0.4651,-0.1939 -0.8914,-0.3619 -1.20131,-0.5942 -0.25834,-0.2068 -0.4263,-0.4523 -0.4651,-0.8787 0.54223,-0.4135 0.8914,-1.0593 0.8914,-1.796 l 0,-0.6718 c 0,-0.052 0,-0.1032 0,-0.1548 0,-0.026 0,-0.052 0,-0.078 l 0,-1.1369 c 0,-0.7495 -0.6075,-1.3693 -1.3565,-1.3693 l -0.87816,0 -0.0388,0 -1.74401,0 c -0.0776,0 -0.24556,-0.026 -0.37472,-0.078 -0.0516,-0.026 -0.10361,-0.052 -0.12917,-0.078 -0.0128,-0.026 -0.026,-0.038 -0.026,-0.064 0,-0.1283 -0.10316,-0.2319 -0.23278,-0.2191 l 0,0 z" class="color2b4255 svgShape"></path></g></svg></g></svg>